<svg xmlns="http://www.w3.org/2000/svg" viewBox="0 0 78 48"><path d="M27.891,10.242H33.56V4H27.891a2.535,2.535,0,0,0-2.535,2.535V7.709A2.535,2.535,0,0,0,27.891,10.242ZM52.509,7.708V6.534A2.534,2.534,0,0,0,49.975,4h-5.67v6.242h5.67A2.534,2.534,0,0,0,52.509,7.708ZM22.075,31.773h0a7.942,7.942,0,0,0,4.91,4.558c3.214,1.265,7.516,1.615,12.2,1.617s8.893-.353,12.021-1.62a7.746,7.746,0,0,0,4.743-4.556,4.542,4.542,0,1,0-1.584-8.839,14.058,14.058,0,0,0-3.132-3.174,19.865,19.865,0,0,0-9.378-3.577h0V4H36.014V16.2a19.817,19.817,0,0,0-9.242,3.561,14.079,14.079,0,0,0-3.132,3.174,4.476,4.476,0,0,0-1.405-.244,4.544,4.544,0,0,0-.158,9.085ZM57.53,27.238a1.763,1.763,0,0,1-1.151,1.647c0,.056.011.11.011.165a10.082,10.082,0,0,0-.674-3.568c.018,0,.033,0,.051,0a1.765,1.765,0,0,1,1.761,1.76ZM24.289,29.072V29.05c0-2.658,1.448-5.194,4.078-7.142A17.919,17.919,0,0,1,39,18.668a17.906,17.906,0,0,1,10.635,3.241c2.629,1.947,4.076,4.483,4.078,7.105V29.1c0,1.439-.356,3.5-3.515,4.75-2.39.968-5.891,1.42-11.015,1.424-5.178,0-8.742-.457-11.234-1.438-3.286-1.267-3.662-3.314-3.66-4.706Zm-2.054-3.6c.017,0,.034.005.051.005h0a10.087,10.087,0,0,0-.674,3.569c0-.056.01-.109.011-.165a1.758,1.758,0,0,1,.612-3.409Zm.643-1.307,0,.009Zm8.911.253a1.855,1.855,0,1,1-1.855,1.855A1.854,1.854,0,0,1,31.789,24.422Zm14.423,0a1.855,1.855,0,1,1-1.855,1.855A1.854,1.854,0,0,1,46.212,24.422Zm-9.749,7.184h.016a4.541,4.541,0,0,0,2.454-1.084,4.544,4.544,0,0,0,2.454,1.084.133.133,0,0,0,.153-.108l0-.014.179-1.552a.14.14,0,0,0-.031-.1.136.136,0,0,0-.1-.05,2.632,2.632,0,0,1-2.034-1.226h0a.76.76,0,0,0-1.25,0,2.642,2.642,0,0,1-2.036,1.226.138.138,0,0,0-.1.05.135.135,0,0,0-.03.1l.178,1.552A.14.14,0,0,0,36.463,31.606ZM62.018,14.519a.141.141,0,0,0-.1-.055.13.13,0,0,0-.108.041l-2.23,2.23a.14.14,0,0,0-.014.18,16.772,16.772,0,0,1-.037,20.114.141.141,0,0,0,.014.181l2.227,2.227a.139.139,0,0,0,.1.041h.01a.143.143,0,0,0,.1-.055,20.272,20.272,0,0,0,.04-24.9ZM18.473,37.03a16.773,16.773,0,0,1-.037-20.114.137.137,0,0,0-.014-.18l-2.23-2.231a.13.13,0,0,0-.108-.041.143.143,0,0,0-.1.055,20.272,20.272,0,0,0,.04,24.9.143.143,0,0,0,.1.055h.01a.139.139,0,0,0,.1-.041l2.227-2.228A.138.138,0,0,0,18.473,37.03ZM8.486,26.946a22.649,22.649,0,0,1,5.4-14.574.14.14,0,0,0-.009-.187l-2.2-2.2a.157.157,0,0,0-.1-.041.142.142,0,0,0-.1.049,25.8,25.8,0,0,0,.042,33.962.146.146,0,0,0,.1.049h.006a.139.139,0,0,0,.1-.041l2.2-2.2a.14.14,0,0,0,.009-.188A22.649,22.649,0,0,1,8.486,26.946ZM66.537,9.99a.139.139,0,0,0-.1-.05.155.155,0,0,0-.1.041l-2.2,2.2a.139.139,0,0,0-.009.187,22.386,22.386,0,0,1-.04,29.2.14.14,0,0,0,.009.188l2.2,2.2a.141.141,0,0,0,.1.041h.005a.14.14,0,0,0,.1-.049A25.8,25.8,0,0,0,66.537,9.99Z"/></svg>