<svg xmlns="http://www.w3.org/2000/svg" viewBox="0 0 190 48"><path d="M42.137,10.933a18.281,18.281,0,0,0-5.169-3.966,27.292,27.292,0,0,0-6.045-2.223,27.976,27.976,0,0,0-12.818,0A27.332,27.332,0,0,0,12.07,6.967a17.693,17.693,0,0,0-5.143,3.966A9.8,9.8,0,0,0,4.413,17.1V39.057a4.405,4.405,0,0,0,1.5,3.394A5.047,5.047,0,0,0,9.425,43.77H9.44A4.668,4.668,0,0,0,14.1,39.094V19.04a3.812,3.812,0,0,1,1.192-2.619A9.792,9.792,0,0,1,18,14.588a15.078,15.078,0,0,1,3.188-1.043,16.169,16.169,0,0,1,6.673,0,15.329,15.329,0,0,1,3.188,1.043,9.817,9.817,0,0,1,2.7,1.831,3.784,3.784,0,0,1,1.192,2.575V39.057a4.411,4.411,0,0,0,1.5,3.394,5.061,5.061,0,0,0,3.517,1.319h.015a4.746,4.746,0,0,0,4.713-4.713V17.064A9.656,9.656,0,0,0,42.137,10.933Zm87.654,6.342h-.03a4.909,4.909,0,0,0-3.436,1.326,4.662,4.662,0,0,0-1.527,3.39V39.057a4.4,4.4,0,0,0,1.5,3.394,5.021,5.021,0,0,0,3.511,1.319h.015a4.747,4.747,0,0,0,4.718-4.713V21.964a4.71,4.71,0,0,0-1.451-3.288A4.861,4.861,0,0,0,129.791,17.275ZM110.064,8.15a19.632,19.632,0,0,0-5.759-3.058,33.427,33.427,0,0,0-8.18-1.025,42.989,42.989,0,0,0-9.08.994,20.143,20.143,0,0,0-5.794,2.865,16.141,16.141,0,0,0-4.293,4.59,11.708,11.708,0,0,0-1.687,6.247v20.4a4.5,4.5,0,0,0,1.339,3.27,4.565,4.565,0,0,0,7.8-3.27V30.693h22.471v8.472a4.575,4.575,0,0,0,7.814,3.267l0,0a4.5,4.5,0,0,0,1.328-3.262V19.541a12.79,12.79,0,0,0-1.686-6.529A16.4,16.4,0,0,0,110.064,8.15Zm-3.181,13.355H84.412v-.277a8.275,8.275,0,0,1,.9-4.133,7.292,7.292,0,0,1,2.175-2.464,7.464,7.464,0,0,1,2.847-1.239,52.179,52.179,0,0,1,5.794-.347,37.238,37.238,0,0,1,4.847.347A7.435,7.435,0,0,1,106,17.1a8.394,8.394,0,0,1,.882,4.13Zm-43.031.017h-9.4a4.581,4.581,0,1,0,0,9.161h9.4a4.581,4.581,0,1,0,0-9.161ZM130.878,4.006h-2.414a4.518,4.518,0,0,0,0,9.035h2.414a4.518,4.518,0,1,0,0-9.035ZM176.7,30.275a13.081,13.081,0,0,0,8.669-12.22c0-6.922-5.652-12.217-13.239-12.217h-23.8a4.895,4.895,0,0,0-3.436,1.327,4.671,4.671,0,0,0-1.527,3.39v28.5a4.409,4.409,0,0,0,1.5,3.4,5.037,5.037,0,0,0,3.512,1.317h.014a4.711,4.711,0,0,0,4.705-4.619V15.04h19.03c2.706,0,4.037,1.414,4.037,3.014a3.942,3.942,0,0,1-4.037,3.823h-7.645a4.616,4.616,0,0,0-4.6,4.6,5.4,5.4,0,0,0,1.875,3.888l16.419,12.674a4.6,4.6,0,1,0,5.621-7.287h0Z"/></svg>